<svg width="256" height="256" viewBox="0 0 256 256" fill="none" xmlns="http://www.w3.org/2000/svg">
<path d="M32.6452 69.4881C32.9558 66.4192 31.7855 63.3859 29.4939 61.3205L6.15126 33.2005V29H78.6303L134.653 151.864L183.906 29H253V33.2005L233.042 52.3361C231.321 53.6476 230.468 55.8032 230.824 57.9367V198.537C230.468 200.67 231.321 202.826 233.042 204.137L252.533 223.273V227.473H154.494V223.273L174.685 203.67C176.669 201.687 176.669 201.104 176.669 198.07V84.4232L120.53 227.007H112.944L47.5845 84.4232V179.984C47.0396 184.002 48.3739 188.047 51.2026 190.952L77.4631 222.806V227.007H3V222.806L29.2605 190.952C32.0686 188.042 33.3252 183.97 32.6452 179.984V69.4881Z" fill="white"/>
</svg>
